<svg width="248" height="64" viewBox="0 0 248 64" fill="none" xmlns="http://www.w3.org/2000/svg">
<g filter="url(#filter0_d_2_6)">
<path d="M4.38644 54.6841L10.532 16.0822H18.3586L13.2975 47.9552H29.1676L28.0831 54.6841H4.38644Z" fill="#597DFF"/>
<path d="M33.2661 54.6841L39.4117 16.0822H64.3555L63.271 22.8112H46.1538L44.7078 32.0093H60.5416L59.4571 38.7382H43.6232L42.1772 47.9552H59.3668L58.2822 54.6841H33.2661Z" fill="#597DFF"/>
<path d="M77.2657 16.0822L81.5676 45.4106H81.9111L95.5217 16.0822H104.198L85.2911 54.6841H75.2052L68.5716 16.0822H77.2657Z" fill="#597DFF"/>
<path d="M102.508 54.6841L108.653 16.0822H133.597L132.513 22.8112H115.395L113.949 32.0093H129.783L128.699 38.7382H112.865L111.419 47.9552H128.608L127.524 54.6841H102.508Z" fill="#597DFF"/>
<path d="M133.674 54.6841L139.82 16.0822H147.646L142.585 47.9552H158.455L157.371 54.6841H133.674Z" fill="#597DFF"/>
<path d="M204.104 0.279579H210.899H211.931L207.195 41.1509C206.749 43.9656 205.719 46.4285 204.104 48.5395C202.489 50.6505 200.435 52.2967 197.94 53.4778C195.446 54.6464 192.662 55.2307 189.59 55.2307C186.517 55.2307 183.926 54.6464 181.817 53.4778C179.709 52.2967 178.184 50.6505 177.244 48.5395C176.304 46.4285 176.057 43.9656 176.503 41.1509L180.48 16.0822H188.306L184.42 40.4535C184.203 41.9236 184.312 43.2305 184.746 44.374C185.191 45.5174 185.926 46.4159 186.951 47.0693C187.975 47.7227 189.24 48.0494 190.747 48.0494C192.265 48.0494 193.639 47.7227 194.868 47.0693C196.109 46.4159 197.127 45.5174 197.922 44.374C198.73 43.2305 199.242 41.9236 199.459 40.4535L204.104 0.279579Z" fill="#597DFF"/>
<path d="M211.465 54.6841L217.611 16.0822H232.216C235.011 16.0822 237.307 16.6414 239.102 17.7598C240.91 18.8655 242.175 20.4048 242.898 22.3777C243.633 24.3379 243.802 26.5997 243.404 29.1632C242.994 31.7391 242.103 34.0072 240.729 35.9675C239.367 37.9152 237.596 39.4356 235.415 40.5288C233.234 41.6221 230.715 42.1687 227.859 42.1687H218.551L219.581 35.6282H227.624C229.143 35.6282 230.438 35.3581 231.511 34.8177C232.595 34.2648 233.457 33.5046 234.095 32.537C234.734 31.5569 235.15 30.4323 235.343 29.1632C235.547 27.8689 235.481 26.7442 235.144 25.7892C234.806 24.8343 234.186 24.0929 233.282 23.5651C232.39 23.0248 231.191 22.7546 229.685 22.7546H224.407L219.292 54.6841H211.465Z" fill="#597DFF"/>
</g>
<defs>
<filter id="filter0_d_2_6" x="0.386444" y="0.279579" width="247.227" height="62.9512" filterUnits="userSpaceOnUse" color-interpolation-filters="sRGB">
<feFlood flood-opacity="0" result="BackgroundImageFix"/>
<feColorMatrix in="SourceAlpha" type="matrix" values="0 0 0 0 0 0 0 0 0 0 0 0 0 0 0 0 0 0 127 0" result="hardAlpha"/>
<feOffset dy="4"/>
<feGaussianBlur stdDeviation="2"/>
<feComposite in2="hardAlpha" operator="out"/>
<feColorMatrix type="matrix" values="0 0 0 0 0.129149 0 0 0 0 0.257466 0 0 0 0 0.720833 0 0 0 0.54 0"/>
<feBlend mode="normal" in2="BackgroundImageFix" result="effect1_dropShadow_2_6"/>
<feBlend mode="normal" in="SourceGraphic" in2="effect1_dropShadow_2_6" result="shape"/>
</filter>
</defs>
</svg>
